<?xml version="1.0" encoding="UTF-8" standalone="no"?>
<!-- Created with Inkscape (http://www.inkscape.org/) -->

<svg
   xmlns:dc="http://purl.org/dc/elements/1.1/"
   xmlns:cc="http://creativecommons.org/ns#"
   xmlns:rdf="http://www.w3.org/1999/02/22-rdf-syntax-ns#"
   xmlns:svg="http://www.w3.org/2000/svg"
   xmlns="http://www.w3.org/2000/svg"
   xmlns:sodipodi="http://sodipodi.sourceforge.net/DTD/sodipodi-0.dtd"
   xmlns:inkscape="http://www.inkscape.org/namespaces/inkscape"
   width="32px"
   height="32px"
   id="svg3004"
   version="1.1"
   inkscape:version="0.48.3.1 r9886"
   sodipodi:docname="area.svg"
   inkscape:export-filename="/home/k00ni/Documents/ow_cubeviz/extensions/cubeviz/public/images/area.png"
   inkscape:export-xdpi="90"
   inkscape:export-ydpi="90">
  <defs
     id="defs3006" />
  <sodipodi:namedview
     id="base"
     pagecolor="#ffffff"
     bordercolor="#666666"
     borderopacity="1.0"
     inkscape:pageopacity="0.0"
     inkscape:pageshadow="2"
     inkscape:zoom="22.395604"
     inkscape:cx="14.790314"
     inkscape:cy="13.931353"
     inkscape:current-layer="layer1"
     showgrid="true"
     inkscape:grid-bbox="true"
     inkscape:document-units="px"
     showguides="true"
     inkscape:guide-bbox="true"
     inkscape:window-width="1366"
     inkscape:window-height="719"
     inkscape:window-x="0"
     inkscape:window-y="26"
     inkscape:window-maximized="1" />
  <metadata
     id="metadata3009">
    <rdf:RDF>
      <cc:Work
         rdf:about="">
        <dc:format>image/svg+xml</dc:format>
        <dc:type
           rdf:resource="http://purl.org/dc/dcmitype/StillImage" />
        <dc:title></dc:title>
      </cc:Work>
    </rdf:RDF>
  </metadata>
  <g
     id="layer1"
     inkscape:label="Layer 1"
     inkscape:groupmode="layer">
    <path
       style="fill:#2d2d2d;fill-opacity:1;stroke:none"
       d="M 1.4560523,5.4782906 7.0138412,15.513076 c 2.8144142,5.081524 5.6613028,9.04075 5.7022188,9.910304 l 0.22906,4.867979 c 0.0034,0.07193 -0.05796,0.129967 -0.129967,0.129967 l -11.3591007,0 c -0.072002,0 -0.1299669,-0.05797 -0.1299669,-0.129967 l 0,-24.6831015 c 0,-0.072002 0.095082,-0.1929537 0.1299669,-0.1299669 z"
       id="rect4123"
       inkscape:connector-curvature="0"
       sodipodi:nodetypes="sssssssss" />
    <path
       style="fill:#2d2d2d;fill-opacity:1;stroke:none"
       d="M 15.356101,10.677042 9.7938667,24.288428 c -1.7296746,4.232701 -6.3258404,0.0142 -6.2347773,0.698452 l 0.7081164,5.320837 c 0.00754,0.0566 0.055941,0.102823 0.1254401,0.102823 l 10.9634551,0 c 0.06949,0 0.125439,-0.04586 0.125439,-0.102823 l 0,-19.527853 c 0,-0.05696 -0.101348,-0.161777 -0.125439,-0.102822 z"
       id="rect4123-1"
       inkscape:connector-curvature="0"
       sodipodi:nodetypes="sssssssss" />
    <path
       style="fill:#2d2d2d;fill-opacity:1;stroke:none"
       d="M 30.424664,1.4026618 22.375832,16.170098 c -2.576201,4.726634 -3.676557,-1.275924 -3.599407,-0.266202 L 19.877821,30.3187 c 0.0064,0.08352 0.0532,0.151458 0.119309,0.151458 l 10.427534,0 c 0.06609,0 0.119308,-0.06755 0.119308,-0.151458 l 0,-28.7645811 c 0,-0.083902 -0.08342,-0.2172946 -0.119308,-0.1514571 z"
       id="rect4123-1-3"
       inkscape:connector-curvature="0"
       sodipodi:nodetypes="sssssssss" />
    <path
       style="fill:#2d2d2d;fill-opacity:1;stroke:none"
       d="m 15.453242,10.645468 6.949422,5.395488 c 3.607856,2.801117 5.286249,3.763702 5.205742,4.449188 l -1.149329,9.785998 c -0.0067,0.0567 -0.05552,0.102823 -0.124501,0.102823 l -10.881334,0 c -0.06897,0 -0.1245,-0.04586 -0.1245,-0.102823 l 0,-19.527852 c 0,-0.05696 0.07425,-0.141839 0.1245,-0.102822 z"
       id="rect4123-1-9"
       inkscape:connector-curvature="0"
       sodipodi:nodetypes="sssssssss" />
    <rect
       style="fill:#2d2d2d;fill-opacity:1;stroke:none"
       id="rect4198"
       width="29.221239"
       height="4.4834318"
       x="1.3260854"
       y="26.506218"
       ry="0.1299669" />
    <rect
       style="fill:#2d2d2d;fill-opacity:1;stroke:none"
       id="rect4200"
       width="0.62512267"
       height="17.414131"
       x="15.404809"
       y="11.058391"
       ry="0.1299669" />
  </g>
</svg>
