<?xml version="1.0" encoding="UTF-8" standalone="no"?>
<!-- Created with Inkscape (http://www.inkscape.org/) -->

<svg
   xmlns:dc="http://purl.org/dc/elements/1.1/"
   xmlns:cc="http://creativecommons.org/ns#"
   xmlns:rdf="http://www.w3.org/1999/02/22-rdf-syntax-ns#"
   xmlns:svg="http://www.w3.org/2000/svg"
   xmlns="http://www.w3.org/2000/svg"
   xmlns:sodipodi="http://sodipodi.sourceforge.net/DTD/sodipodi-0.dtd"
   xmlns:inkscape="http://www.inkscape.org/namespaces/inkscape"
   width="32px"
   height="32px"
   id="svg3004"
   version="1.1"
   inkscape:version="0.48.3.1 r9886"
   sodipodi:docname="spline.svg"
   inkscape:export-filename="/home/k00ni/Documents/ow_cubeviz/extensions/cubeviz/public/images/spline.png"
   inkscape:export-xdpi="90"
   inkscape:export-ydpi="90">
  <defs
     id="defs3006" />
  <sodipodi:namedview
     id="base"
     pagecolor="#ffffff"
     bordercolor="#666666"
     borderopacity="1.0"
     inkscape:pageopacity="0.0"
     inkscape:pageshadow="2"
     inkscape:zoom="11.197802"
     inkscape:cx="8.7720708"
     inkscape:cy="12.706916"
     inkscape:current-layer="layer1"
     showgrid="true"
     inkscape:grid-bbox="true"
     inkscape:document-units="px"
     showguides="true"
     inkscape:guide-bbox="true"
     inkscape:window-width="1366"
     inkscape:window-height="719"
     inkscape:window-x="0"
     inkscape:window-y="26"
     inkscape:window-maximized="1" />
  <metadata
     id="metadata3009">
    <rdf:RDF>
      <cc:Work
         rdf:about="">
        <dc:format>image/svg+xml</dc:format>
        <dc:type
           rdf:resource="http://purl.org/dc/dcmitype/StillImage" />
        <dc:title></dc:title>
      </cc:Work>
    </rdf:RDF>
  </metadata>
  <g
     id="layer1"
     inkscape:label="Layer 1"
     inkscape:groupmode="layer">
    <path
       style="fill:#2d2d2d;fill-opacity:1;stroke:#2d2d2d;stroke-width:2.11548615;stroke-miterlimit:4;stroke-opacity:1;stroke-dasharray:none"
       id="path4375"
       d="M 3.0976663,10.357353 C 3.2203293,10.142031 3.344486,9.9273885 3.4678852,9.7123212 3.6013566,9.4775628 3.7349534,9.2428625 3.8699396,9.0092943 4.032545,8.7289275 4.2231823,8.4742542 4.4326333,8.241601 4.949217,7.6726563 5.6060046,7.3166099 6.21189,6.9050774 6.5318659,6.7082711 6.8675885,6.5504132 7.2018331,6.3909442 7.4219778,6.2825026 7.6537519,6.2295388 7.8905551,6.2105066 8.0840993,6.1781276 8.2575971,6.2291946 8.4403468,6.2958756 8.620429,6.3679236 8.7844257,6.4631904 8.9477824,6.5754139 9.1259999,6.7320595 9.2411841,6.9586542 9.355838,7.1783305 9.4755994,7.428775 9.5452618,7.7048954 9.6081337,7.9808355 9.6653127,8.268026 9.74383,8.5475324 9.848235,8.8156116 c 0.117926,0.3275589 0.263948,0.6396294 0.413652,0.9482147 0.149433,0.3172397 0.321468,0.6185797 0.473478,0.9340077 0.119474,0.27131 0.203599,0.561442 0.293978,0.847233 0.104883,0.378104 0.15066,0.770125 0.188522,1.163663 0.03204,0.389202 0.02222,0.780636 0.04231,1.170418 0.03261,0.364455 0.05258,0.729675 0.0624,1.095894 0.0035,0.399889 0.01785,0.800211 0.0019,1.199853 -0.02688,0.35762 -0.03898,0.716318 -0.08031,1.072181 -0.0463,0.307338 -0.05077,0.619766 -0.07462,0.929763 -0.03479,0.286488 -0.05598,0.574379 -0.06943,0.863202 -0.0091,0.285763 -0.01154,0.571792 -0.01147,0.857738 0.0012,0.296236 -4.72e-4,0.592467 6.35e-4,0.888705 -0.0015,0.307991 1.11e-4,0.615982 -3.24e-4,0.923974 -0.0098,0.289562 0.0091,0.57554 0.0347,0.86305 0.01692,0.320184 0.06162,0.63556 0.110144,0.950783 0.05389,0.37241 0.16197,0.72929 0.272511,1.08258 0.10037,0.253697 0.188517,0.514012 0.291835,0.766076 0.09791,0.262465 0.222882,0.505157 0.355512,0.744536 0.149209,0.249425 0.301476,0.496324 0.465756,0.732407 0.164905,0.23648 0.367988,0.431413 0.583202,0.601014 0.227689,0.16155 0.439578,0.345441 0.689398,0.45673 0.249538,0.127303 0.519492,0.177898 0.78515,0.236323 0.274351,0.05606 0.553065,0.06784 0.830866,0.07447 0.228876,-0.02257 0.454471,-0.05702 0.67777,-0.118894 0.224118,-0.07325 0.443063,-0.156709 0.655629,-0.268612 0.129674,-0.04293 0.245594,-0.116761 0.362377,-0.192839 0.04006,-0.0261 0.160638,-0.103538 0.120954,-0.07665 -1.022487,0.692807 -1.213564,0.84251 -0.818887,0.540313 0.200518,-0.156288 0.356685,-0.370403 0.508111,-0.586735 0.152865,-0.206204 0.280398,-0.435272 0.414465,-0.658119 0.154347,-0.25267 0.271108,-0.533316 0.403682,-0.802166 0.148785,-0.287064 0.250016,-0.600725 0.332468,-0.921252 0.07535,-0.287759 0.136234,-0.580707 0.193045,-0.874229 0.04965,-0.256443 0.04924,-0.519926 0.0708,-0.780207 0.03727,-0.288102 0.05741,-0.578259 0.06827,-0.869235 0.0093,-0.262497 0.0069,-0.5252 0.0084,-0.787831 1.7e-5,-0.22937 -0.0018,-0.458732 -0.0026,-0.688098 -0.0017,-0.212249 7.01e-4,-0.424478 6.83e-4,-0.636726 -0.01093,-0.250235 0.02182,-0.497519 0.05798,-0.743229 0.04629,-0.327477 0.135035,-0.643483 0.235377,-0.952797 0.0933,-0.299801 0.193705,-0.595816 0.299997,-0.889474 0.112019,-0.31515 0.228329,-0.627954 0.389428,-0.912942 0.400823,-0.533064 0.980765,-0.987074 1.580809,-1.088477 0.187877,-0.03732 0.369529,0.0086 0.554391,0.04229 0.19153,0.03103 0.377335,0.100027 0.563702,0.15924 0.185616,0.0396 0.364568,0.108822 0.550417,0.147266 0.182736,0.04789 0.353598,0.127784 0.527634,0.206346 0.181174,0.07997 0.359272,0.157186 0.551487,0.190263 0.217517,0.03729 0.433083,0.02515 0.645516,-0.03904 0.378575,-0.208642 0.97139,-0.604053 -0.764453,0.524087 -0.02926,0.01901 0.05405,-0.04642 0.07988,-0.07139 0.05823,-0.0563 0.10049,-0.106859 0.154732,-0.168508 0.145414,-0.186936 0.275516,-0.389762 0.410431,-0.587206 0.136013,-0.183288 0.24569,-0.389712 0.371568,-0.582052 0.159667,-0.2343 0.306867,-0.475779 0.427929,-0.740231 0.135884,-0.292154 0.211805,-0.603689 0.256561,-0.930318 0.03673,-0.366706 0.03922,-0.736738 0.03971,-1.105529 -0.0014,-0.354058 -0.0025,-0.708124 -0.0025,-1.062193 9.23e-4,-0.337959 -0.0015,-0.675905 -0.0036,-1.013851 -0.002,-0.235651 -0.0038,-0.471303 -0.0047,-0.706964 -0.0033,-0.1934541 0.08002,-0.3537294 0.158152,-0.5154914 C 25.691649,9.4568117 25.79365,9.2524147 25.890039,9.0441992 26.009117,8.8051922 26.126096,8.5646603 26.231145,8.316667 26.350161,8.0251371 26.473527,7.7356271 26.60488,7.4514859 26.720221,7.1931158 26.876209,6.9661895 27.038583,6.7473873 27.451926,6.23148 28.011331,5.9516516 28.528189,5.59745 c 0.133866,-0.1164066 0.30444,-0.1096486 0.452818,-0.1761095 0.38443,-0.1925605 1.048087,-0.6765654 -0.820038,0.5691838 -0.03105,0.02071 0.05561,-0.053409 0.07873,-0.085411 0.0429,-0.081362 0.07961,-0.1641478 0.10714,-0.2541692 0,0 1.100886,-0.6154891 1.100886,-0.6154891 l 0,0 c -0.01856,0.1005119 -0.03906,0.2003371 -0.09399,0.2833649 -0.186436,0.5986749 -0.847602,0.7752679 -1.336514,0.9770659 -0.154518,0.039441 -0.301203,0.0964 -0.434134,0.2006685 1.836085,-1.2623713 0.928083,-0.6980889 0.56536,-0.2984342 -0.164061,0.2105224 -0.326968,0.4263282 -0.444011,0.6784129 -0.145011,0.2714765 -0.256061,0.5676525 -0.379318,0.8532774 -0.09309,0.2554643 -0.211974,0.4972156 -0.334263,0.7347283 -0.09748,0.2060822 -0.190626,0.4147183 -0.293601,0.6171528 -0.08054,0.1280275 -0.161903,0.2859246 -0.190659,0.4427688 -9.01e-4,0.2375075 -0.0026,0.4750068 -0.0046,0.7125057 -0.002,0.339026 -0.0042,0.678061 -0.0023,1.017096 0.0011,0.3547 0.0025,0.709422 7.8e-4,1.064112 -0.0019,0.37387 0.0017,0.748831 -0.03076,1.12126 -0.03363,0.340111 -0.09963,0.667021 -0.236429,0.971908 -0.114642,0.273202 -0.248491,0.525599 -0.412475,0.762089 -0.130981,0.189279 -0.237126,0.39822 -0.369488,0.586242 -0.144252,0.189663 -0.268397,0.399885 -0.405087,0.597306 -0.423323,0.514271 -0.958001,0.927079 -1.547995,1.116705 -0.224786,0.041 -0.451025,0.04774 -0.675817,-0.0012 -0.194624,-0.04674 -0.377439,-0.133116 -0.563448,-0.213576 -0.169358,-0.076 -0.342021,-0.138241 -0.519258,-0.183892 -0.184878,-0.04815 -0.36711,-0.109585 -0.552036,-0.157633 -0.183441,-0.05826 -0.368109,-0.115849 -0.556762,-0.145132 -0.177259,-0.03071 -0.354233,-0.04913 -0.53113,-7.59e-4 -0.414557,0.129206 -0.826564,0.531897 0.776658,-0.58553 0.03155,-0.022 -0.06651,0.03687 -0.09763,0.0597 -0.09447,0.06926 -0.112215,0.100028 -0.193177,0.192785 -0.176881,0.264556 -0.289128,0.571435 -0.396391,0.8818 -0.105526,0.294493 -0.216235,0.586009 -0.306033,0.888058 -0.100933,0.300168 -0.195139,0.605793 -0.239975,0.925439 -0.03801,0.235956 -0.06555,0.476227 -0.06104,0.716582 10e-6,0.211865 0.0024,0.423711 0.001,0.635579 -5.93e-4,0.230363 -0.0017,0.460725 -0.0018,0.69109 8.67e-4,0.265129 -0.0022,0.530385 -0.0096,0.795362 -0.01103,0.292817 -0.02553,0.586162 -0.06209,0.876324 -0.02873,0.263817 -0.01886,0.532515 -0.06757,0.793852 -0.05062,0.299205 -0.121624,0.59408 -0.193533,0.886967 -0.08116,0.325591 -0.172116,0.653166 -0.318371,0.947251 -0.0613,0.136394 -0.137411,0.260083 -0.198538,0.396404 -0.0569,0.12688 -0.0637,0.173542 -0.1256,0.295617 -0.02193,0.04325 -0.04819,0.08326 -0.07229,0.124884 -0.138419,0.221117 -0.257687,0.458849 -0.411549,0.666195 -0.153758,0.221193 -0.301553,0.450104 -0.495689,0.625978 -0.542891,0.436191 -1.116097,0.838597 -1.729431,1.121508 -0.220055,0.102136 -0.444256,0.189642 -0.674835,0.253055 -0.22639,0.05306 -0.45788,0.08015 -0.688584,0.08534 -0.281181,-0.01281 -0.56321,-0.03039 -0.84,-0.09423 -0.271774,-0.06159 -0.545296,-0.122454 -0.798594,-0.259231 -0.25168,-0.127322 -0.474917,-0.310376 -0.706521,-0.481184 -0.218525,-0.185915 -0.432419,-0.3847 -0.600961,-0.634778 -0.164857,-0.241244 -0.320891,-0.49073 -0.47282,-0.743388 -0.138714,-0.242697 -0.260169,-0.494302 -0.365067,-0.759695 -0.106714,-0.256235 -0.196571,-0.521413 -0.290715,-0.784244 -0.107997,-0.362451 -0.218178,-0.72461 -0.280615,-1.102912 -0.05239,-0.316786 -0.108064,-0.632812 -0.12083,-0.956296 -0.02848,-0.291932 -0.05478,-0.582694 -0.03995,-0.877276 -4.63e-4,-0.307763 0.0011,-0.615525 -6.73e-4,-0.923286 7.87e-4,-0.296385 -0.0015,-0.592763 -3.55e-4,-0.889143 5.82e-4,-0.287459 -0.0027,-0.575047 0.0069,-0.862369 0.01001,-0.292004 0.03275,-0.58308 0.06825,-0.872376 0.03455,-0.310216 0.02807,-0.625618 0.07232,-0.935108 0.05104,-0.352652 0.0706,-0.708917 0.09398,-1.065473 0.02385,-0.395286 0.0078,-0.792337 0.003,-1.188252 -0.01077,-0.364322 -0.03025,-0.727992 -0.06218,-1.090669 -0.02427,-0.38865 -0.0059,-0.779563 -0.03749,-1.168072 -0.0288,-0.383001 -0.07856,-0.761089 -0.182721,-1.127069 C 9.89219,11.950772 9.801868,11.671646 9.695058,11.401557 9.5484515,11.083869 9.3774682,10.782714 9.2290821,10.466235 9.0717832,10.158373 8.9283665,9.8396699 8.80271,9.5123103 8.6894514,9.2389854 8.6106404,8.9504405 8.5501257,8.6550199 8.4945167,8.3908176 8.4210585,8.1320741 8.3116027,7.8912773 8.2082099,7.6896854 8.1011156,7.4811135 7.9283307,7.3524596 7.7747572,7.2446329 7.6115862,7.1647152 7.4413618,7.099563 7.2677248,7.04363 7.09514,7.033146 6.9159673,7.0591771 6.6915117,7.0888905 6.4735397,7.153977 6.2652072,7.2584654 5.9328422,7.4187526 5.5986972,7.5772453 5.285796,7.7865648 7.0549849,6.5815755 5.8861038,7.3159362 5.541389,7.7073555 5.3311772,7.9312008 5.1335424,8.1689231 4.971551,8.4444823 4.8353175,8.6753841 4.7095124,8.9143603 4.5710814,9.1435392 4.4541909,9.3583593 4.3153028,9.5569454 4.2212262,9.7878389 c 0,0 -1.1235599,0.5695141 -1.1235599,0.5695141 z"
       inkscape:connector-curvature="0" />
  </g>
</svg>
